<svg id="svg" version="1.1" width="400" height="400" viewBox="0 0 400 400" xmlns="http://www.w3.org/2000/svg" xmlns:xlink="http://www.w3.org/1999/xlink" ><g id="svgg"><path id="path0" d="" stroke="none" fill="#000000" fill-rule="evenodd"></path><path id="path1" d="M177.483 0.270 C 173.097 0.391,171.920 0.543,171.740 1.011 C 171.566 1.465,170.743 1.600,168.157 1.600 C 166.186 1.600,164.800 1.765,164.800 2.000 C 164.800 2.222,163.740 2.400,162.420 2.400 C 160.727 2.400,159.943 2.572,159.706 2.996 C 159.490 3.383,158.646 3.624,157.302 3.683 C 156.152 3.733,155.447 3.909,155.716 4.080 C 155.982 4.249,155.134 4.391,153.831 4.394 C 152.329 4.398,151.228 4.613,150.820 4.981 C 150.467 5.301,149.520 5.607,148.715 5.661 C 147.910 5.716,147.341 5.904,147.449 6.080 C 147.558 6.256,146.827 6.400,145.824 6.400 C 144.578 6.400,144.032 6.558,144.100 6.900 C 144.165 7.223,143.598 7.444,142.500 7.523 C 141.565 7.591,140.800 7.816,140.800 8.023 C 140.800 8.230,140.080 8.400,139.200 8.400 C 137.945 8.400,137.599 8.551,137.594 9.100 C 137.589 9.698,137.531 9.713,137.200 9.200 C 136.942 8.800,136.810 8.767,136.806 9.100 C 136.803 9.375,136.350 9.600,135.800 9.600 C 135.250 9.600,134.800 9.780,134.800 10.000 C 134.800 10.220,134.080 10.400,133.200 10.400 C 131.945 10.400,131.599 10.551,131.594 11.100 C 131.589 11.698,131.531 11.713,131.200 11.200 C 130.942 10.800,130.810 10.767,130.806 11.100 C 130.803 11.388,130.290 11.600,129.600 11.600 C 128.940 11.600,128.400 11.780,128.400 12.000 C 128.400 12.220,127.854 12.400,127.187 12.400 C 126.479 12.400,125.879 12.649,125.745 13.000 C 125.618 13.330,125.084 13.600,124.557 13.600 C 124.031 13.600,123.600 13.780,123.600 14.000 C 123.600 14.220,123.150 14.400,122.600 14.400 C 122.050 14.400,121.621 14.535,121.647 14.700 C 121.772 15.490,121.549 15.740,121.200 15.200 C 120.942 14.800,120.810 14.767,120.806 15.100 C 120.803 15.376,120.307 15.603,119.700 15.606 C 118.843 15.611,118.732 15.698,119.200 16.000 C 119.646 16.288,119.411 16.389,118.287 16.394 C 117.316 16.398,116.692 16.615,116.545 17.000 C 116.418 17.330,116.034 17.600,115.692 17.600 C 114.826 17.600,112.000 18.884,112.000 19.277 C 112.000 19.455,111.758 19.600,111.461 19.600 C 110.544 19.600,108.379 20.842,108.619 21.231 C 108.745 21.434,108.657 21.600,108.424 21.600 C 108.191 21.600,107.997 21.375,107.994 21.100 C 107.990 20.771,107.887 20.744,107.694 21.021 C 107.532 21.252,106.725 21.756,105.900 22.140 C 105.075 22.523,104.400 23.009,104.400 23.219 C 104.400 23.428,103.950 23.600,103.400 23.600 C 102.850 23.600,102.400 23.777,102.400 23.992 C 102.400 24.208,101.912 24.507,101.315 24.657 C 100.333 24.904,100.304 24.959,101.015 25.237 C 101.635 25.479,101.522 25.550,100.476 25.572 C 99.702 25.588,99.255 25.766,99.400 26.000 C 99.540 26.227,99.204 26.400,98.624 26.400 C 97.980 26.400,97.600 26.623,97.600 27.000 C 97.600 27.530,96.847 27.807,95.870 27.637 C 95.689 27.606,95.655 27.765,95.794 27.990 C 95.934 28.217,95.693 28.400,95.252 28.400 C 94.815 28.400,94.187 28.670,93.857 29.000 C 93.527 29.330,93.064 29.600,92.829 29.600 C 92.593 29.600,92.400 29.777,92.400 29.992 C 92.400 30.208,91.912 30.507,91.315 30.657 C 90.333 30.904,90.304 30.959,91.015 31.237 C 91.684 31.498,91.637 31.548,90.700 31.572 C 90.095 31.587,89.600 31.780,89.600 32.000 C 89.600 32.220,89.234 32.400,88.787 32.400 C 88.341 32.400,87.871 32.670,87.745 33.000 C 87.618 33.330,87.264 33.600,86.957 33.600 C 86.651 33.600,86.400 33.780,86.400 34.000 C 86.400 34.220,86.173 34.400,85.896 34.400 C 85.619 34.400,84.907 34.850,84.313 35.400 C 83.720 35.950,83.047 36.400,82.817 36.400 C 82.588 36.400,82.397 36.715,82.394 37.100 C 82.389 37.698,82.331 37.713,82.000 37.200 C 81.787 36.870,81.609 36.795,81.606 37.032 C 81.603 37.270,81.150 37.706,80.600 38.000 C 80.050 38.294,79.600 38.775,79.600 39.068 C 79.600 39.360,79.407 39.600,79.171 39.600 C 78.607 39.600,77.600 40.622,77.600 41.195 C 77.600 41.444,77.417 41.534,77.193 41.396 C 76.970 41.258,76.908 40.949,77.055 40.711 C 77.217 40.449,77.137 40.392,76.855 40.566 C 76.598 40.725,76.491 41.023,76.617 41.228 C 76.744 41.432,76.644 41.600,76.395 41.600 C 76.146 41.600,75.708 41.825,75.420 42.100 C 75.133 42.375,74.526 42.858,74.070 43.173 C 73.615 43.488,73.334 43.893,73.445 44.073 C 73.556 44.253,73.271 44.400,72.811 44.400 C 72.351 44.400,71.871 44.670,71.745 45.000 C 71.618 45.330,71.341 45.600,71.129 45.600 C 70.631 45.600,69.600 46.629,69.600 47.125 C 69.600 47.335,69.227 47.604,68.770 47.724 C 68.314 47.843,67.839 48.329,67.715 48.804 C 67.544 49.457,67.406 49.537,67.151 49.134 C 66.897 48.734,66.811 48.726,66.806 49.100 C 66.803 49.375,66.610 49.600,66.379 49.600 C 65.655 49.600,51.551 63.987,51.491 64.787 C 51.460 65.204,51.288 65.455,51.110 65.345 C 50.933 65.235,50.909 64.932,51.058 64.672 C 51.206 64.413,51.174 64.340,50.986 64.512 C 50.798 64.683,50.599 65.130,50.544 65.504 C 50.489 65.879,50.254 66.249,50.022 66.326 C 49.790 66.403,49.586 66.767,49.568 67.133 C 49.548 67.562,49.464 67.618,49.332 67.292 C 49.110 66.738,47.600 68.369,47.600 69.163 C 47.600 69.403,47.407 69.600,47.171 69.600 C 46.711 69.600,45.600 70.583,45.600 70.991 C 45.600 71.127,45.150 71.655,44.600 72.165 C 44.050 72.675,43.600 73.214,43.600 73.363 C 43.600 73.621,43.207 74.151,42.100 75.385 C 41.825 75.692,41.600 76.326,41.600 76.795 C 41.600 77.270,41.420 77.536,41.193 77.396 C 40.970 77.258,40.909 76.932,41.058 76.672 C 41.206 76.413,41.174 76.340,40.986 76.512 C 40.798 76.683,40.599 77.130,40.544 77.504 C 40.489 77.879,40.254 78.249,40.022 78.326 C 39.790 78.403,39.600 78.722,39.600 79.033 C 39.600 79.345,39.330 79.600,39.000 79.600 C 38.670 79.600,38.400 79.735,38.400 79.900 C 38.399 80.065,37.949 80.723,37.400 81.362 C 36.850 82.001,36.400 82.684,36.400 82.880 C 36.400 83.075,35.950 83.720,35.400 84.313 C 34.850 84.907,34.400 85.619,34.400 85.896 C 34.400 86.173,34.220 86.400,34.000 86.400 C 33.780 86.400,33.600 86.651,33.600 86.957 C 33.600 87.264,33.330 87.618,33.000 87.745 C 32.670 87.871,32.400 88.341,32.400 88.787 C 32.400 89.234,32.220 89.600,32.000 89.600 C 31.780 89.600,31.600 89.870,31.600 90.200 C 31.600 90.530,31.285 90.813,30.900 90.828 C 30.301 90.852,30.316 90.906,31.000 91.200 C 31.440 91.389,31.562 91.556,31.271 91.572 C 30.402 91.618,29.500 92.775,29.500 93.845 C 29.500 94.531,29.326 94.781,28.950 94.636 C 28.637 94.516,28.400 94.678,28.400 95.013 C 28.400 95.336,28.220 95.600,28.000 95.600 C 27.780 95.600,27.600 96.050,27.600 96.600 C 27.600 97.222,27.373 97.600,27.000 97.600 C 26.670 97.600,26.400 97.870,26.400 98.200 C 26.400 98.530,26.220 98.800,26.000 98.800 C 25.780 98.800,25.600 99.250,25.600 99.800 C 25.600 100.475,25.373 100.809,24.900 100.828 C 24.301 100.852,24.316 100.906,25.000 101.200 C 25.440 101.389,25.562 101.556,25.271 101.572 C 24.463 101.615,23.600 102.647,23.600 103.571 C 23.600 104.027,23.419 104.400,23.199 104.400 C 22.978 104.400,22.486 105.120,22.104 106.000 C 21.723 106.880,21.288 107.600,21.137 107.600 C 20.987 107.600,20.745 108.138,20.601 108.795 C 20.457 109.453,20.172 110.094,19.969 110.219 C 19.766 110.345,19.600 110.719,19.600 111.052 C 19.600 111.385,19.330 111.927,19.000 112.257 C 18.670 112.587,18.400 113.204,18.400 113.629 C 18.400 114.053,18.220 114.400,18.000 114.400 C 17.780 114.400,17.600 114.831,17.600 115.357 C 17.600 115.884,17.330 116.418,17.000 116.545 C 16.615 116.692,16.398 117.316,16.394 118.287 C 16.389 119.411,16.288 119.646,16.000 119.200 C 15.714 118.757,15.609 119.018,15.600 120.200 C 15.592 121.229,15.467 121.610,15.250 121.266 C 14.859 120.650,14.400 121.496,14.400 122.833 C 14.400 123.255,14.220 123.600,14.000 123.600 C 13.780 123.600,13.600 124.031,13.600 124.557 C 13.600 125.084,13.330 125.618,13.000 125.745 C 12.649 125.879,12.400 126.479,12.400 127.187 C 12.400 127.854,12.220 128.400,12.000 128.400 C 11.780 128.400,11.597 129.165,11.594 130.100 C 11.590 131.182,11.465 131.606,11.250 131.266 C 10.797 130.553,10.400 131.566,10.400 133.433 C 10.400 134.185,10.220 134.800,10.000 134.800 C 9.780 134.800,9.597 135.475,9.594 136.300 C 9.590 137.273,9.469 137.613,9.250 137.266 C 8.838 136.618,8.400 137.517,8.400 139.009 C 8.400 139.528,8.220 140.064,8.000 140.200 C 7.780 140.336,7.600 141.247,7.600 142.224 C 7.600 143.536,7.443 144.000,7.000 144.000 C 6.581 144.000,6.400 144.422,6.400 145.400 C 6.400 146.170,6.220 146.800,6.000 146.800 C 5.780 146.800,5.600 146.991,5.600 147.224 C 5.600 147.457,5.825 147.520,6.100 147.365 C 6.500 147.139,6.500 147.190,6.100 147.621 C 5.825 147.918,5.600 148.642,5.600 149.231 C 5.600 149.820,5.330 150.526,5.000 150.800 C 4.634 151.104,4.400 151.980,4.400 153.049 C 4.400 154.012,4.220 154.800,4.000 154.800 C 3.780 154.800,3.603 155.115,3.606 155.500 C 3.611 156.105,3.671 156.119,4.044 155.600 C 4.389 155.121,4.415 155.161,4.177 155.800 C 4.013 156.240,3.791 157.228,3.684 157.996 C 3.577 158.764,3.200 159.632,2.845 159.926 C 2.490 160.219,2.413 160.353,2.672 160.223 C 2.932 160.093,3.258 160.170,3.396 160.393 C 3.534 160.617,3.367 160.800,3.024 160.800 C 2.523 160.800,2.394 161.333,2.372 163.500 C 2.352 165.379,2.239 165.957,2.000 165.400 C 1.770 164.864,1.647 165.709,1.628 167.956 C 1.605 170.669,1.466 171.410,0.900 171.824 C -0.183 172.615,-0.183 227.493,0.900 228.690 C 1.395 229.237,1.600 230.133,1.600 231.755 C 1.600 233.181,1.751 233.954,2.000 233.800 C 2.254 233.643,2.400 234.733,2.400 236.789 C 2.400 239.297,2.535 240.077,3.000 240.255 C 3.391 240.405,3.600 241.028,3.600 242.043 C 3.600 242.899,3.780 243.600,4.000 243.600 C 4.220 243.600,4.397 243.915,4.394 244.300 C 4.389 244.898,4.331 244.913,4.000 244.400 C 3.658 243.871,3.612 243.874,3.606 244.420 C 3.603 244.761,3.762 245.211,3.961 245.420 C 4.159 245.629,4.410 246.604,4.518 247.586 C 4.626 248.568,4.914 249.438,5.157 249.519 C 5.401 249.600,5.600 250.192,5.600 250.833 C 5.600 251.475,5.780 252.000,6.000 252.000 C 6.220 252.000,6.400 252.191,6.400 252.424 C 6.400 252.657,6.220 252.736,6.000 252.600 C 5.488 252.284,5.478 252.918,5.987 253.427 C 6.199 253.639,6.416 254.383,6.469 255.079 C 6.523 255.775,6.754 256.312,6.983 256.272 C 7.212 256.233,7.455 256.965,7.523 257.900 C 7.591 258.835,7.816 259.600,8.023 259.600 C 8.230 259.600,8.379 259.735,8.353 259.900 C 8.156 261.145,8.481 262.400,9.000 262.400 C 9.453 262.400,9.600 262.889,9.600 264.400 C 9.600 265.500,9.780 266.400,10.000 266.400 C 10.220 266.400,10.400 266.816,10.400 267.324 C 10.400 267.831,10.664 268.596,10.987 269.024 C 11.310 269.451,11.580 270.205,11.587 270.700 C 11.594 271.195,11.780 271.600,12.000 271.600 C 12.220 271.600,12.400 272.146,12.400 272.813 C 12.400 273.521,12.649 274.121,13.000 274.255 C 13.330 274.382,13.600 274.916,13.600 275.443 C 13.600 275.969,13.780 276.400,14.000 276.400 C 14.220 276.400,14.400 276.850,14.400 277.400 C 14.400 278.022,14.627 278.400,15.000 278.400 C 15.373 278.400,15.600 278.778,15.600 279.400 C 15.600 279.950,15.780 280.400,16.000 280.400 C 16.220 280.400,16.400 280.591,16.400 280.824 C 16.400 281.057,16.220 281.136,16.000 281.000 C 15.780 280.864,15.600 280.943,15.600 281.176 C 15.600 281.409,15.780 281.600,16.000 281.600 C 16.220 281.600,16.400 281.966,16.400 282.413 C 16.400 282.859,16.670 283.329,17.000 283.455 C 17.330 283.582,17.600 284.116,17.600 284.643 C 17.600 285.169,17.780 285.600,18.000 285.600 C 18.220 285.600,18.400 285.947,18.400 286.371 C 18.400 286.796,18.670 287.413,19.000 287.743 C 19.330 288.073,19.600 288.626,19.600 288.971 C 19.600 289.317,19.810 289.600,20.067 289.600 C 20.323 289.600,20.428 289.705,20.299 289.834 C 19.936 290.197,20.832 292.428,21.239 292.176 C 21.438 292.053,21.600 292.323,21.600 292.776 C 21.600 293.229,21.780 293.600,22.000 293.600 C 22.220 293.600,22.400 293.966,22.400 294.413 C 22.400 294.859,22.670 295.329,23.000 295.455 C 23.330 295.582,23.600 296.116,23.600 296.643 C 23.600 297.169,23.780 297.600,24.000 297.600 C 24.220 297.600,24.400 297.966,24.400 298.413 C 24.400 298.859,24.670 299.329,25.000 299.455 C 25.330 299.582,25.606 299.981,25.613 300.343 C 25.629 301.172,26.543 302.400,27.144 302.400 C 27.395 302.400,27.600 302.850,27.600 303.400 C 27.600 303.950,27.760 304.400,27.957 304.400 C 28.153 304.400,28.426 304.850,28.564 305.400 C 28.702 305.950,28.992 306.400,29.208 306.400 C 29.423 306.400,29.600 306.670,29.600 307.000 C 29.600 307.330,29.780 307.600,30.000 307.600 C 30.220 307.600,30.400 307.864,30.400 308.186 C 30.400 308.509,30.944 309.329,31.609 310.009 C 32.274 310.690,32.721 311.404,32.603 311.596 C 32.484 311.788,32.598 312.075,32.855 312.234 C 33.148 312.415,33.216 312.350,33.038 312.062 C 32.881 311.808,32.943 311.600,33.176 311.600 C 33.409 311.600,33.600 311.842,33.600 312.139 C 33.600 312.933,34.839 315.309,35.613 316.000 C 35.983 316.330,36.414 317.008,36.572 317.506 C 36.729 318.004,36.988 318.331,37.148 318.232 C 37.308 318.134,37.700 318.235,38.019 318.457 C 38.457 318.762,38.478 318.911,38.104 319.063 C 37.533 319.294,38.416 320.400,39.171 320.400 C 39.407 320.400,39.600 320.850,39.600 321.400 C 39.600 322.039,39.825 322.400,40.224 322.400 C 40.616 322.400,40.736 322.585,40.547 322.900 C 40.343 323.240,40.463 323.224,40.923 322.851 C 41.526 322.362,41.600 322.416,41.600 323.351 C 41.600 323.928,41.780 324.400,42.000 324.400 C 42.220 324.400,42.400 324.676,42.400 325.013 C 42.400 325.349,42.670 325.729,43.000 325.855 C 43.330 325.982,43.600 326.308,43.600 326.581 C 43.600 326.853,43.991 327.419,44.469 327.838 C 44.947 328.257,45.206 328.375,45.045 328.100 C 44.884 327.825,44.943 327.600,45.176 327.600 C 45.409 327.600,45.600 327.973,45.600 328.429 C 45.600 329.314,46.466 330.400,47.171 330.400 C 47.407 330.400,47.600 330.593,47.600 330.829 C 47.600 331.382,48.618 332.400,49.171 332.400 C 49.407 332.400,49.600 332.769,49.600 333.219 C 49.600 333.669,50.413 334.863,51.408 335.871 C 52.402 336.880,53.102 337.411,52.965 337.052 C 52.826 336.691,52.912 336.400,53.157 336.400 C 53.401 336.400,53.600 336.769,53.600 337.220 C 53.600 338.195,62.815 347.600,63.771 347.600 C 64.117 347.600,64.400 347.920,64.400 348.311 C 64.400 349.021,65.695 350.400,66.362 350.400 C 66.556 350.400,66.818 350.670,66.945 351.000 C 67.071 351.330,67.451 351.600,67.787 351.600 C 68.124 351.600,68.400 351.780,68.400 352.000 C 68.400 352.220,68.670 352.400,69.000 352.400 C 69.330 352.400,69.600 352.593,69.600 352.829 C 69.600 353.534,70.686 354.400,71.571 354.400 C 72.480 354.400,72.695 355.014,71.900 355.335 C 71.601 355.456,71.682 355.550,72.100 355.568 C 72.485 355.586,72.800 355.780,72.800 356.000 C 72.800 356.220,73.051 356.400,73.357 356.400 C 73.664 356.400,74.018 356.670,74.145 357.000 C 74.271 357.330,74.651 357.600,74.987 357.600 C 75.324 357.600,75.600 357.780,75.600 358.000 C 75.600 358.220,75.881 358.400,76.224 358.400 C 76.616 358.400,76.736 358.585,76.547 358.900 C 76.343 359.240,76.463 359.224,76.923 358.851 C 77.526 358.362,77.600 358.416,77.600 359.351 C 77.600 360.142,77.802 360.400,78.419 360.400 C 78.870 360.400,79.694 360.895,80.251 361.500 C 80.809 362.105,81.149 362.375,81.009 362.100 C 80.868 361.825,80.943 361.600,81.176 361.600 C 81.409 361.600,81.603 362.005,81.606 362.500 C 81.611 363.228,81.686 363.285,82.000 362.800 C 82.331 362.287,82.389 362.302,82.394 362.900 C 82.397 363.285,82.604 363.600,82.854 363.600 C 83.104 363.600,83.725 364.050,84.235 364.600 C 84.745 365.150,85.440 365.600,85.781 365.600 C 86.121 365.600,86.400 365.780,86.400 366.000 C 86.400 366.220,86.670 366.400,87.000 366.400 C 87.330 366.400,87.600 366.670,87.600 367.000 C 87.600 367.338,87.958 367.600,88.418 367.600 C 88.868 367.600,89.686 368.050,90.236 368.600 C 90.786 369.150,91.498 369.600,91.818 369.600 C 92.138 369.600,92.400 369.780,92.400 370.000 C 92.400 370.220,92.651 370.400,92.957 370.400 C 93.264 370.400,93.622 370.681,93.754 371.025 C 93.886 371.369,94.161 371.548,94.365 371.422 C 94.569 371.296,95.007 371.464,95.339 371.796 C 95.671 372.128,96.234 372.400,96.591 372.400 C 96.947 372.400,97.655 372.850,98.165 373.400 C 98.675 373.950,99.386 374.400,99.746 374.400 C 100.106 374.400,100.400 374.577,100.400 374.792 C 100.400 375.008,100.850 375.298,101.400 375.436 C 101.950 375.574,102.403 375.892,102.406 376.143 C 102.409 376.395,102.579 376.336,102.784 376.012 C 103.092 375.525,103.316 375.611,104.091 376.512 C 104.605 377.110,105.301 377.600,105.637 377.600 C 105.974 377.600,106.643 377.967,107.125 378.416 C 107.606 378.864,108.000 379.044,108.000 378.816 C 108.000 378.587,108.180 378.400,108.400 378.400 C 108.620 378.400,108.755 378.625,108.700 378.900 C 108.643 379.187,109.098 379.457,109.770 379.533 C 110.644 379.633,110.795 379.758,110.370 380.027 C 109.929 380.306,109.996 380.389,110.667 380.394 C 111.143 380.397,111.624 380.625,111.735 380.900 C 111.896 381.300,111.943 381.300,111.968 380.900 C 111.986 380.625,112.180 380.400,112.400 380.400 C 112.620 380.400,112.755 380.621,112.700 380.891 C 112.645 381.160,113.005 381.443,113.500 381.518 C 113.995 381.594,114.400 381.823,114.400 382.028 C 114.400 382.233,114.831 382.400,115.357 382.400 C 115.884 382.400,116.418 382.670,116.545 383.000 C 116.671 383.330,117.105 383.600,117.507 383.600 C 117.910 383.600,118.411 383.767,118.620 383.971 C 118.829 384.176,119.630 384.401,120.400 384.471 C 121.257 384.550,121.761 384.794,121.700 385.100 C 121.642 385.390,122.007 385.600,122.567 385.600 C 123.098 385.600,123.593 385.772,123.667 385.982 C 123.740 386.193,124.463 386.409,125.274 386.463 C 126.085 386.516,126.658 386.707,126.547 386.887 C 126.436 387.066,126.149 387.092,125.911 386.945 C 125.651 386.785,125.591 386.863,125.762 387.138 C 125.919 387.392,126.677 387.600,127.447 387.600 C 128.217 387.600,128.760 387.742,128.652 387.915 C 128.545 388.088,128.933 388.270,129.514 388.318 C 130.096 388.366,130.722 388.674,130.905 389.003 C 131.089 389.331,131.771 389.600,132.420 389.600 C 133.069 389.600,133.600 389.780,133.600 390.000 C 133.600 390.220,134.500 390.400,135.600 390.400 C 137.111 390.400,137.600 390.547,137.600 391.000 C 137.600 391.373,137.978 391.600,138.600 391.600 C 139.150 391.600,139.600 391.780,139.600 392.000 C 139.600 392.220,140.481 392.400,141.557 392.400 C 142.928 392.400,143.583 392.580,143.745 393.000 C 143.889 393.377,144.501 393.600,145.387 393.600 C 146.164 393.600,146.800 393.780,146.800 394.000 C 146.800 394.220,147.616 394.400,148.613 394.400 C 149.855 394.400,150.498 394.589,150.655 395.000 C 150.817 395.420,151.472 395.600,152.843 395.600 C 153.919 395.600,154.800 395.780,154.800 396.000 C 154.800 396.222,155.867 396.400,157.200 396.400 C 159.067 396.400,159.600 396.533,159.600 397.000 C 159.600 397.472,160.156 397.600,162.200 397.600 C 163.956 397.600,164.800 397.756,164.800 398.080 C 164.800 398.453,164.907 398.453,165.280 398.080 C 165.859 397.501,166.949 397.435,166.600 398.000 C 166.445 398.251,167.329 398.400,168.976 398.400 C 170.904 398.400,171.600 398.542,171.600 398.937 C 171.600 399.358,173.284 399.530,179.464 399.737 C 195.758 400.282,228.400 399.897,228.400 399.160 C 228.400 398.987,228.035 398.916,227.589 399.002 C 227.143 399.088,226.884 398.988,227.013 398.779 C 227.142 398.571,228.557 398.400,230.157 398.400 C 231.757 398.400,233.202 398.265,233.367 398.100 C 233.749 397.718,233.819 397.710,237.400 397.650 C 239.050 397.623,240.400 397.426,240.400 397.213 C 240.400 396.999,240.100 396.940,239.734 397.081 C 239.287 397.252,239.164 397.183,239.358 396.868 C 239.517 396.611,240.526 396.400,241.600 396.400 C 242.674 396.400,243.669 396.211,243.812 395.981 C 243.954 395.750,244.370 395.591,244.735 395.627 C 246.688 395.818,248.814 395.529,249.343 395.000 C 249.673 394.670,250.596 394.400,251.395 394.400 C 252.194 394.400,252.753 394.247,252.637 394.060 C 252.522 393.874,252.993 393.705,253.684 393.685 C 254.375 393.666,255.080 393.400,255.251 393.094 C 255.450 392.739,256.398 392.505,257.881 392.447 C 259.157 392.396,260.260 392.185,260.333 391.978 C 260.407 391.770,261.011 391.600,261.676 391.600 C 262.523 391.600,262.824 391.439,262.680 391.064 C 262.531 390.675,262.926 390.511,264.117 390.464 C 265.021 390.428,265.940 390.220,266.160 390.000 C 266.380 389.780,267.083 389.600,267.723 389.600 C 268.531 389.600,268.823 389.436,268.680 389.063 C 268.533 388.680,268.891 388.511,269.934 388.472 C 270.737 388.442,271.456 388.233,271.530 388.009 C 271.605 387.784,272.282 387.600,273.033 387.600 C 273.785 387.600,274.400 387.426,274.400 387.213 C 274.400 386.999,274.085 386.926,273.700 387.050 C 273.109 387.240,273.094 387.208,273.600 386.844 C 273.930 386.606,274.695 386.409,275.300 386.406 C 275.905 386.403,276.400 386.220,276.400 386.000 C 276.400 385.780,276.850 385.600,277.400 385.600 C 278.022 385.600,278.400 385.373,278.400 385.000 C 278.400 384.567,278.844 384.400,280.000 384.400 C 280.880 384.400,281.600 384.220,281.600 384.000 C 281.600 383.780,282.050 383.600,282.600 383.600 C 283.222 383.600,283.600 383.373,283.600 383.000 C 283.600 382.623,283.980 382.400,284.624 382.400 C 285.204 382.400,285.540 382.227,285.400 382.000 C 285.261 381.774,285.585 381.600,286.144 381.600 C 287.677 381.600,288.590 381.167,287.934 380.750 C 287.562 380.515,287.713 380.410,288.429 380.406 C 289.804 380.398,292.712 378.982,291.962 378.686 C 291.653 378.563,291.895 378.449,292.500 378.432 C 293.105 378.414,293.600 378.220,293.600 378.000 C 293.600 377.780,294.050 377.600,294.600 377.600 C 295.222 377.600,295.600 377.373,295.600 377.000 C 295.600 376.670,295.881 376.400,296.224 376.400 C 296.567 376.400,296.736 376.220,296.600 376.000 C 296.464 375.780,296.528 375.600,296.743 375.600 C 296.958 375.600,297.224 375.825,297.335 376.100 C 297.496 376.500,297.543 376.500,297.568 376.100 C 297.586 375.825,297.966 375.600,298.413 375.600 C 298.859 375.600,299.329 375.330,299.455 375.000 C 299.582 374.670,299.947 374.400,300.266 374.400 C 300.586 374.400,300.729 374.208,300.583 373.973 C 300.438 373.739,300.563 373.580,300.860 373.621 C 301.946 373.770,302.400 373.587,302.400 373.000 C 302.400 372.627,302.778 372.400,303.400 372.400 C 303.950 372.400,304.400 372.220,304.400 372.000 C 304.400 371.780,304.754 371.600,305.187 371.600 C 305.665 371.600,305.897 371.397,305.778 371.086 C 305.656 370.770,305.929 370.545,306.484 370.504 C 306.981 370.466,307.451 370.248,307.527 370.018 C 307.604 369.788,307.986 369.600,308.377 369.600 C 308.768 369.600,309.426 369.150,309.839 368.600 C 310.253 368.049,310.996 367.600,311.495 367.600 C 311.993 367.600,312.400 367.409,312.400 367.176 C 312.400 366.943,312.220 366.864,312.000 367.000 C 311.780 367.136,311.600 367.057,311.600 366.824 C 311.600 366.591,312.050 366.400,312.600 366.400 C 313.150 366.400,313.600 366.220,313.600 366.000 C 313.600 365.780,313.862 365.600,314.182 365.600 C 314.502 365.600,315.192 365.172,315.716 364.648 C 316.239 364.124,317.081 363.565,317.587 363.404 C 318.301 363.178,318.382 363.034,317.953 362.762 C 317.518 362.487,317.555 362.411,318.124 362.406 C 318.586 362.402,318.745 362.219,318.565 361.900 C 318.346 361.512,318.398 361.506,318.796 361.874 C 319.347 362.384,320.400 361.697,320.400 360.829 C 320.400 360.593,320.784 360.400,321.253 360.400 C 321.722 360.400,322.700 359.770,323.426 359.000 C 324.152 358.230,324.910 357.600,325.111 357.600 C 325.701 357.600,326.829 356.163,326.501 355.830 C 326.335 355.661,326.470 355.562,326.800 355.609 C 328.241 355.814,328.528 355.639,327.962 354.900 C 327.667 354.515,327.581 354.330,327.769 354.489 C 328.224 354.873,330.400 353.570,330.400 352.914 C 330.400 352.631,330.670 352.400,331.000 352.400 C 331.330 352.400,331.600 352.220,331.600 352.000 C 331.600 351.780,331.889 351.600,332.243 351.600 C 332.670 351.600,332.802 351.383,332.638 350.955 C 332.461 350.494,332.563 350.377,332.995 350.543 C 333.366 350.685,333.600 350.547,333.600 350.187 C 333.600 349.854,333.990 349.586,334.500 349.568 C 334.995 349.551,335.175 349.446,334.900 349.335 C 334.625 349.224,334.400 348.949,334.400 348.724 C 334.400 348.499,334.665 348.416,334.988 348.540 C 335.312 348.664,335.839 348.504,336.160 348.183 C 336.481 347.862,336.936 347.600,337.171 347.600 C 337.407 347.600,337.600 347.407,337.600 347.171 C 337.600 346.618,338.618 345.600,339.171 345.600 C 339.407 345.600,339.600 345.407,339.600 345.171 C 339.600 344.618,340.618 343.600,341.171 343.600 C 341.407 343.600,341.600 343.407,341.600 343.171 C 341.600 342.618,342.618 341.600,343.171 341.600 C 343.407 341.600,343.600 341.407,343.600 341.171 C 343.600 340.618,344.618 339.600,345.171 339.600 C 345.407 339.600,345.600 339.407,345.600 339.171 C 345.600 338.618,346.618 337.600,347.171 337.600 C 347.407 337.600,347.600 337.373,347.600 337.095 C 347.600 336.817,348.050 336.252,348.600 335.839 C 349.150 335.426,349.600 334.753,349.600 334.344 C 349.600 333.935,349.780 333.600,350.000 333.600 C 350.220 333.600,350.400 333.330,350.400 333.000 C 350.400 332.670,350.593 332.400,350.829 332.400 C 351.382 332.400,352.400 331.382,352.400 330.829 C 352.400 330.593,352.631 330.400,352.914 330.400 C 353.570 330.400,354.873 328.224,354.489 327.769 C 354.330 327.581,354.515 327.667,354.900 327.962 C 355.639 328.528,355.814 328.241,355.609 326.800 C 355.562 326.470,355.661 326.335,355.830 326.501 C 356.163 326.829,357.600 325.701,357.600 325.111 C 357.600 324.910,358.230 324.152,359.000 323.426 C 359.770 322.700,360.400 321.722,360.400 321.253 C 360.400 320.784,360.593 320.400,360.829 320.400 C 361.697 320.400,362.384 319.347,361.874 318.796 C 361.506 318.398,361.512 318.346,361.900 318.565 C 362.207 318.738,362.400 318.606,362.400 318.224 C 362.400 317.881,362.670 317.600,363.000 317.600 C 363.330 317.600,363.600 317.407,363.600 317.171 C 363.600 316.936,363.862 316.481,364.183 316.160 C 364.504 315.839,364.664 315.312,364.540 314.988 C 364.416 314.665,364.524 314.400,364.781 314.400 C 365.037 314.400,365.136 314.580,365.000 314.800 C 364.864 315.020,364.943 315.200,365.176 315.200 C 365.409 315.200,365.600 314.840,365.600 314.400 C 365.600 313.960,365.780 313.600,366.000 313.600 C 366.220 313.600,366.400 313.150,366.400 312.600 C 366.400 311.554,366.988 311.240,367.335 312.100 C 367.446 312.375,367.551 312.148,367.568 311.595 C 367.587 311.016,368.024 310.271,368.600 309.839 C 369.150 309.426,369.600 308.768,369.600 308.377 C 369.600 307.986,369.788 307.604,370.018 307.527 C 370.248 307.451,370.466 306.981,370.504 306.484 C 370.545 305.929,370.770 305.656,371.086 305.778 C 371.397 305.897,371.600 305.665,371.600 305.187 C 371.600 304.754,371.780 304.400,372.000 304.400 C 372.220 304.400,372.400 303.950,372.400 303.400 C 372.400 302.778,372.627 302.400,373.000 302.400 C 373.587 302.400,373.770 301.946,373.621 300.860 C 373.580 300.563,373.739 300.438,373.973 300.583 C 374.208 300.729,374.400 300.582,374.400 300.257 C 374.400 299.932,374.625 299.576,374.900 299.465 C 375.300 299.304,375.300 299.257,374.900 299.232 C 374.625 299.214,374.400 299.001,374.400 298.757 C 374.400 298.514,374.670 298.418,375.000 298.545 C 375.355 298.681,375.600 298.549,375.600 298.221 C 375.600 297.916,375.825 297.576,376.100 297.465 C 376.500 297.304,376.500 297.257,376.100 297.232 C 375.825 297.214,375.600 297.009,375.600 296.776 C 375.600 296.543,375.780 296.464,376.000 296.600 C 376.220 296.736,376.400 296.567,376.400 296.224 C 376.400 295.881,376.670 295.600,377.000 295.600 C 377.373 295.600,377.600 295.222,377.600 294.600 C 377.600 294.050,377.768 293.600,377.973 293.600 C 378.179 293.600,378.404 293.105,378.473 292.500 C 378.543 291.895,378.755 291.456,378.945 291.523 C 379.327 291.660,380.400 289.801,380.400 289.003 C 380.400 288.725,380.670 288.274,381.000 288.000 C 381.330 287.726,381.600 287.074,381.600 286.551 C 381.600 286.028,381.780 285.600,382.000 285.600 C 382.220 285.600,382.400 285.150,382.400 284.600 C 382.400 283.978,382.627 283.600,383.000 283.600 C 383.359 283.600,383.600 283.231,383.600 282.680 C 383.600 282.174,383.825 281.518,384.100 281.221 C 384.500 280.790,384.500 280.739,384.100 280.965 C 383.420 281.349,383.469 280.874,384.183 280.160 C 384.504 279.839,384.664 279.312,384.540 278.988 C 384.416 278.665,384.524 278.400,384.781 278.400 C 385.037 278.400,385.136 278.580,385.000 278.800 C 384.864 279.020,384.943 279.200,385.176 279.200 C 385.409 279.200,385.600 278.585,385.600 277.833 C 385.600 277.082,385.772 276.407,385.982 276.333 C 386.193 276.260,386.409 275.537,386.463 274.726 C 386.516 273.915,386.707 273.342,386.887 273.453 C 387.066 273.564,387.109 273.823,386.983 274.028 C 386.856 274.232,386.943 274.400,387.176 274.400 C 387.409 274.400,387.600 273.785,387.600 273.033 C 387.600 272.282,387.825 271.576,388.100 271.465 C 388.500 271.304,388.500 271.257,388.100 271.232 C 387.825 271.214,387.600 271.009,387.600 270.776 C 387.600 270.543,387.780 270.464,388.000 270.600 C 388.369 270.828,388.560 270.172,388.503 268.873 C 388.490 268.581,388.730 268.441,389.040 268.560 C 389.443 268.714,389.600 268.441,389.600 267.587 C 389.600 266.934,389.780 266.400,390.000 266.400 C 390.220 266.400,390.400 266.209,390.400 265.976 C 390.400 265.743,390.220 265.664,390.000 265.800 C 389.780 265.936,389.600 265.857,389.600 265.624 C 389.600 265.391,389.780 265.200,390.000 265.200 C 390.220 265.200,390.400 264.570,390.400 263.800 C 390.400 262.822,390.581 262.400,391.000 262.400 C 391.369 262.400,391.600 262.025,391.600 261.424 C 391.600 260.887,391.780 260.336,392.000 260.200 C 392.220 260.064,392.400 259.153,392.400 258.176 C 392.400 256.864,392.557 256.400,393.000 256.400 C 393.330 256.400,393.600 256.226,393.600 256.013 C 393.600 255.799,393.285 255.734,392.900 255.866 C 392.261 256.087,392.263 256.058,392.924 255.541 C 393.333 255.222,393.664 254.421,393.685 253.701 C 393.705 253.001,393.874 252.522,394.060 252.637 C 394.358 252.821,394.609 250.281,394.430 248.900 C 394.394 248.625,394.563 248.400,394.806 248.400 C 395.049 248.400,395.136 248.580,395.000 248.800 C 394.864 249.020,394.943 249.200,395.176 249.200 C 395.544 249.200,395.832 246.412,395.623 244.870 C 395.584 244.579,395.732 244.123,395.952 243.858 C 396.172 243.593,396.395 242.445,396.447 241.308 C 396.499 240.170,396.692 239.333,396.877 239.448 C 397.062 239.562,397.109 239.823,396.983 240.028 C 396.856 240.232,396.943 240.400,397.176 240.400 C 397.431 240.400,397.600 239.363,397.600 237.800 C 397.600 235.990,397.752 235.198,398.100 235.194 C 398.422 235.190,398.453 235.083,398.187 234.894 C 397.711 234.556,397.683 234.002,398.109 233.333 C 398.273 233.076,398.432 231.501,398.464 229.833 C 398.503 227.787,398.676 226.800,398.998 226.800 C 399.611 226.800,400.000 216.548,400.000 200.400 C 400.000 182.530,399.596 171.600,398.936 171.600 C 398.542 171.600,398.400 170.904,398.400 168.976 C 398.400 167.329,398.251 166.445,398.000 166.600 C 397.435 166.949,397.501 165.859,398.080 165.280 C 398.431 164.929,398.436 164.800,398.099 164.800 C 397.813 164.800,397.593 163.851,397.519 162.300 C 397.436 160.562,397.248 159.830,396.900 159.900 C 396.543 159.971,396.398 159.284,396.394 157.500 C 396.390 155.738,396.273 155.177,396.000 155.600 C 395.728 156.020,395.610 155.391,395.606 153.500 C 395.602 151.870,395.432 150.800,395.176 150.800 C 394.943 150.800,394.856 150.968,394.983 151.172 C 395.109 151.377,395.053 151.644,394.857 151.765 C 394.661 151.886,394.466 151.133,394.424 150.092 C 394.309 147.290,394.295 147.218,393.933 147.441 C 393.750 147.555,393.600 146.821,393.600 145.811 C 393.600 144.548,393.413 143.903,393.000 143.745 C 392.587 143.586,392.398 142.935,392.394 141.657 C 392.389 140.311,392.281 139.965,392.000 140.400 C 391.716 140.839,391.611 140.545,391.606 139.300 C 391.602 138.058,391.438 137.600,391.000 137.600 C 390.547 137.600,390.400 137.111,390.400 135.600 C 390.400 134.500,390.220 133.600,390.000 133.600 C 389.780 133.600,389.600 133.041,389.600 132.357 C 389.600 131.506,389.437 131.177,389.084 131.313 C 388.754 131.439,388.536 131.136,388.482 130.478 C 388.435 129.910,388.230 129.342,388.028 129.217 C 387.825 129.092,387.601 128.272,387.530 127.395 C 387.447 126.383,387.217 125.837,386.900 125.900 C 386.589 125.962,386.400 125.547,386.400 124.800 C 386.400 124.140,386.220 123.600,386.000 123.600 C 385.780 123.600,385.600 123.150,385.600 122.600 C 385.600 121.978,385.373 121.600,385.000 121.600 C 384.627 121.600,384.400 121.222,384.400 120.600 C 384.400 120.050,384.220 119.600,384.000 119.600 C 383.780 119.600,383.600 119.409,383.600 119.176 C 383.600 118.943,383.825 118.880,384.100 119.035 C 384.500 119.261,384.500 119.210,384.100 118.779 C 383.825 118.482,383.600 117.910,383.600 117.507 C 383.600 117.105,383.330 116.671,383.000 116.545 C 382.670 116.418,382.400 115.884,382.400 115.357 C 382.400 114.831,382.220 114.400,382.000 114.400 C 381.780 114.400,381.600 113.959,381.600 113.420 C 381.600 112.881,381.375 112.296,381.099 112.120 C 380.551 111.769,379.804 110.344,379.376 108.831 C 379.225 108.298,378.764 107.499,378.351 107.055 C 377.938 106.612,377.600 106.004,377.600 105.705 C 377.600 105.406,377.112 104.710,376.516 104.157 C 375.618 103.325,375.532 103.088,376.016 102.782 C 376.414 102.530,376.441 102.410,376.100 102.406 C 375.825 102.403,375.600 102.136,375.600 101.813 C 375.600 101.455,375.365 101.315,375.000 101.455 C 374.670 101.582,374.400 101.501,374.400 101.276 C 374.400 101.051,374.625 100.776,374.900 100.665 C 375.300 100.504,375.300 100.457,374.900 100.432 C 374.625 100.414,374.400 100.119,374.400 99.776 C 374.400 99.433,374.220 99.264,374.000 99.400 C 373.780 99.536,373.600 99.271,373.600 98.811 C 373.600 98.351,373.330 97.871,373.000 97.745 C 372.670 97.618,372.400 97.279,372.400 96.991 C 372.400 96.702,372.175 96.376,371.900 96.265 C 371.519 96.111,371.525 96.056,371.929 96.032 C 372.579 95.993,371.514 94.800,370.829 94.800 C 370.593 94.800,370.400 94.626,370.400 94.413 C 370.400 94.199,370.715 94.124,371.100 94.245 C 371.767 94.455,371.767 94.438,371.100 93.889 C 370.715 93.571,370.400 93.107,370.400 92.856 C 370.400 92.605,370.220 92.400,370.000 92.400 C 369.780 92.400,369.600 92.065,369.600 91.656 C 369.600 91.247,369.150 90.574,368.600 90.161 C 368.049 89.747,367.600 89.004,367.600 88.505 C 367.600 87.967,367.357 87.600,367.000 87.600 C 366.670 87.600,366.400 87.330,366.400 87.000 C 366.400 86.670,366.220 86.400,366.000 86.400 C 365.780 86.400,365.600 86.040,365.600 85.600 C 365.600 85.160,365.409 84.800,365.176 84.800 C 364.943 84.800,364.864 84.980,365.000 85.200 C 365.136 85.420,365.037 85.600,364.781 85.600 C 364.524 85.600,364.416 85.335,364.540 85.012 C 364.664 84.688,364.527 84.185,364.236 83.893 C 363.944 83.601,363.580 82.966,363.426 82.481 C 363.265 81.973,362.819 81.600,362.373 81.600 C 361.948 81.600,361.600 81.409,361.600 81.176 C 361.600 80.943,361.825 80.868,362.100 81.009 C 362.375 81.149,362.105 80.809,361.500 80.251 C 360.895 79.694,360.400 78.870,360.400 78.419 C 360.400 77.812,360.141 77.600,359.400 77.600 C 358.600 77.600,358.400 77.400,358.400 76.600 C 358.400 76.050,358.220 75.600,358.000 75.600 C 357.780 75.600,357.600 75.370,357.600 75.089 C 357.600 74.468,356.161 73.173,355.834 73.500 C 355.705 73.628,355.600 73.253,355.600 72.667 C 355.600 71.567,355.022 71.216,354.665 72.100 C 354.554 72.375,354.449 72.182,354.432 71.671 C 354.398 70.693,353.552 69.600,352.829 69.600 C 352.593 69.600,352.400 69.407,352.400 69.171 C 352.400 68.618,351.382 67.600,350.829 67.600 C 350.593 67.600,350.400 67.226,350.400 66.769 C 350.400 65.695,348.305 63.600,347.231 63.600 C 346.774 63.600,346.400 63.401,346.400 63.157 C 346.400 62.914,346.676 62.820,347.014 62.950 C 347.351 63.079,345.459 61.029,342.809 58.393 C 339.892 55.491,337.677 53.600,337.195 53.600 C 336.758 53.600,336.400 53.401,336.400 53.157 C 336.400 52.914,336.679 52.822,337.021 52.953 C 337.377 53.089,337.537 53.022,337.397 52.795 C 337.263 52.578,336.803 52.400,336.376 52.400 C 335.949 52.400,335.600 52.136,335.600 51.813 C 335.600 51.455,335.365 51.315,335.000 51.455 C 334.670 51.582,334.400 51.486,334.400 51.243 C 334.400 50.999,334.608 50.800,334.861 50.800 C 335.115 50.800,334.900 50.434,334.385 49.987 C 333.869 49.539,333.202 49.267,332.903 49.382 C 332.603 49.497,332.449 49.445,332.559 49.267 C 332.784 48.902,331.406 47.600,330.795 47.600 C 330.578 47.600,330.400 47.407,330.400 47.171 C 330.400 46.731,329.159 45.321,328.929 45.500 C 328.568 45.781,327.600 45.545,327.600 45.176 C 327.600 44.943,327.825 44.884,328.100 45.045 C 328.375 45.206,328.257 44.947,327.838 44.469 C 327.419 43.991,326.853 43.600,326.581 43.600 C 326.308 43.600,325.982 43.330,325.855 43.000 C 325.729 42.670,325.349 42.400,325.013 42.400 C 324.676 42.400,324.400 42.220,324.400 42.000 C 324.400 41.780,323.950 41.600,323.400 41.600 C 322.600 41.600,322.400 41.400,322.400 40.600 C 322.400 39.800,322.200 39.600,321.400 39.600 C 320.850 39.600,320.400 39.407,320.400 39.171 C 320.400 38.280,319.161 37.417,318.770 38.035 C 318.424 38.581,318.204 38.110,318.345 37.124 C 318.366 36.973,317.982 36.722,317.492 36.567 C 317.001 36.412,316.330 35.983,316.000 35.613 C 315.309 34.839,312.933 33.600,312.139 33.600 C 311.842 33.600,311.600 33.409,311.600 33.176 C 311.600 32.943,311.808 32.881,312.062 33.038 C 312.350 33.216,312.415 33.148,312.234 32.855 C 312.075 32.598,311.785 32.486,311.589 32.607 C 311.393 32.728,310.711 32.281,310.073 31.613 C 309.435 30.946,308.633 30.400,308.290 30.400 C 307.947 30.400,307.604 30.212,307.527 29.982 C 307.451 29.752,306.986 29.534,306.494 29.497 C 306.002 29.460,305.600 29.198,305.600 28.915 C 305.600 28.632,305.330 28.400,305.000 28.400 C 304.670 28.400,304.400 28.220,304.400 28.000 C 304.400 27.780,303.950 27.600,303.400 27.600 C 302.850 27.600,302.400 27.395,302.400 27.144 C 302.400 26.543,301.172 25.629,300.343 25.613 C 299.981 25.606,299.582 25.330,299.455 25.000 C 299.329 24.670,298.874 24.400,298.446 24.400 C 298.017 24.400,297.576 24.175,297.465 23.900 C 297.304 23.500,297.257 23.500,297.232 23.900 C 297.214 24.175,297.009 24.400,296.776 24.400 C 296.543 24.400,296.464 24.220,296.600 24.000 C 296.736 23.780,296.567 23.600,296.224 23.600 C 295.881 23.600,295.600 23.423,295.600 23.208 C 295.600 22.992,295.150 22.702,294.600 22.564 C 294.050 22.426,293.600 22.153,293.600 21.957 C 293.600 21.760,293.229 21.600,292.776 21.600 C 292.323 21.600,292.053 21.438,292.176 21.239 C 292.428 20.832,290.197 19.936,289.834 20.299 C 289.705 20.428,289.600 20.323,289.600 20.067 C 289.600 19.810,289.317 19.600,288.971 19.600 C 288.626 19.600,288.073 19.330,287.743 19.000 C 287.413 18.670,286.796 18.400,286.371 18.400 C 285.947 18.400,285.600 18.220,285.600 18.000 C 285.600 17.780,285.169 17.600,284.643 17.600 C 284.116 17.600,283.582 17.330,283.455 17.000 C 283.329 16.670,282.859 16.400,282.413 16.400 C 281.966 16.400,281.597 16.175,281.594 15.900 C 281.590 15.561,281.451 15.593,281.163 16.000 C 280.844 16.452,280.689 16.476,280.536 16.100 C 280.425 15.825,279.898 15.600,279.367 15.600 C 278.774 15.600,278.400 15.368,278.400 15.000 C 278.400 14.627,278.022 14.400,277.400 14.400 C 276.850 14.400,276.400 14.220,276.400 14.000 C 276.400 13.780,275.969 13.600,275.443 13.600 C 274.916 13.600,274.382 13.330,274.255 13.000 C 274.126 12.662,273.530 12.400,272.893 12.400 C 272.270 12.400,271.563 12.203,271.322 11.962 C 271.080 11.720,270.236 11.505,269.446 11.482 C 268.656 11.460,268.206 11.320,268.447 11.171 C 269.020 10.817,268.491 10.514,267.000 10.342 C 266.340 10.265,265.701 10.070,265.580 9.908 C 265.459 9.745,264.710 9.564,263.914 9.506 C 263.119 9.448,262.498 9.220,262.534 9.000 C 262.570 8.780,262.105 8.543,261.500 8.473 C 260.895 8.404,260.400 8.179,260.400 7.973 C 260.400 7.768,260.209 7.600,259.976 7.600 C 259.743 7.600,259.664 7.780,259.800 8.000 C 259.936 8.220,259.872 8.400,259.657 8.400 C 259.442 8.400,259.207 8.229,259.133 8.020 C 259.060 7.811,258.242 7.596,257.315 7.543 C 256.145 7.475,255.742 7.311,255.995 7.006 C 256.245 6.705,255.959 6.537,255.086 6.470 C 254.386 6.417,253.639 6.199,253.427 5.987 C 252.918 5.478,252.284 5.488,252.600 6.000 C 252.736 6.220,252.657 6.400,252.424 6.400 C 252.191 6.400,252.000 6.220,252.000 6.000 C 252.000 5.780,251.475 5.600,250.833 5.600 C 250.192 5.600,249.600 5.401,249.519 5.157 C 249.438 4.914,248.568 4.626,247.586 4.518 C 246.604 4.410,245.629 4.159,245.420 3.961 C 245.211 3.762,244.761 3.603,244.420 3.606 C 243.874 3.612,243.871 3.658,244.400 4.000 C 244.913 4.331,244.898 4.389,244.300 4.394 C 243.915 4.397,243.600 4.220,243.600 4.000 C 243.600 3.780,242.711 3.600,241.624 3.600 C 240.537 3.600,239.517 3.389,239.358 3.132 C 239.162 2.815,239.289 2.749,239.755 2.927 C 240.163 3.084,240.342 3.030,240.197 2.795 C 240.063 2.578,238.883 2.400,237.576 2.400 C 236.259 2.400,235.200 2.222,235.200 2.000 C 235.200 1.780,235.009 1.600,234.776 1.600 C 234.543 1.600,234.464 1.780,234.600 2.000 C 234.736 2.220,234.556 2.400,234.200 2.400 C 233.844 2.400,233.664 2.220,233.800 2.000 C 233.957 1.745,232.812 1.600,230.647 1.600 C 228.777 1.600,227.142 1.429,227.013 1.221 C 226.882 1.010,227.169 0.917,227.660 1.012 C 228.297 1.134,228.420 1.060,228.105 0.745 C 227.661 0.301,189.312 -0.059,177.483 0.270 M205.860 97.829 C 206.554 98.143,207.411 98.400,207.766 98.400 C 208.121 98.400,208.723 98.559,209.105 98.754 C 209.487 98.948,210.970 99.677,212.400 100.374 C 216.758 102.497,217.714 103.239,222.868 108.493 C 226.402 112.095,230.584 117.929,232.891 122.474 C 233.596 123.863,234.314 125.060,234.486 125.133 C 234.659 125.207,234.800 125.505,234.800 125.796 C 234.800 126.088,235.222 127.198,235.737 128.263 C 236.253 129.328,237.065 131.064,237.542 132.121 C 238.105 133.366,238.575 133.939,238.880 133.750 C 239.514 133.359,249.150 132.684,254.600 132.650 C 260.621 132.612,269.979 133.858,270.980 134.831 C 271.189 135.034,271.740 135.200,272.205 135.200 C 272.670 135.200,273.983 135.650,275.123 136.200 C 276.263 136.750,277.300 137.200,277.428 137.200 C 279.934 137.200,288.302 145.472,290.175 149.800 C 290.556 150.680,291.065 151.760,291.307 152.200 C 292.432 154.247,293.348 167.058,292.447 168.143 C 292.230 168.405,291.926 169.565,291.773 170.719 C 291.620 171.873,291.338 172.915,291.147 173.033 C 290.956 173.151,290.800 173.689,290.800 174.229 C 290.800 174.769,290.632 175.523,290.426 175.905 C 289.465 177.689,288.800 179.388,288.800 180.061 C 288.800 180.468,288.655 180.800,288.477 180.800 C 288.123 180.800,286.800 183.588,286.800 184.334 C 286.800 184.590,286.659 184.800,286.487 184.800 C 286.315 184.800,285.556 185.970,284.800 187.400 C 284.044 188.830,283.285 190.000,283.113 190.000 C 282.941 190.000,282.800 190.200,282.800 190.444 C 282.800 190.931,279.198 196.005,277.723 197.596 C 276.385 199.039,276.989 201.338,279.195 203.200 C 279.325 203.310,280.792 205.470,282.455 208.000 C 285.148 212.099,286.298 214.043,287.187 216.000 C 287.336 216.330,287.745 217.140,288.094 217.800 C 289.189 219.871,290.000 221.896,290.000 222.560 C 290.000 222.912,290.160 223.200,290.356 223.200 C 290.552 223.200,290.808 223.785,290.924 224.500 C 291.040 225.215,291.449 226.970,291.833 228.400 C 292.646 231.428,293.088 241.770,292.439 242.553 C 292.217 242.821,291.914 243.800,291.765 244.729 C 291.616 245.658,291.339 246.514,291.147 246.632 C 290.956 246.751,290.800 247.287,290.800 247.824 C 290.800 248.361,290.620 248.800,290.400 248.800 C 290.180 248.800,290.000 249.040,290.000 249.334 C 290.000 250.564,283.213 258.800,282.199 258.800 C 282.060 258.800,281.374 259.220,280.673 259.732 C 278.689 261.186,272.520 264.000,271.320 264.000 C 270.902 264.000,270.389 264.162,270.180 264.359 C 269.971 264.556,269.080 264.817,268.200 264.938 C 254.795 266.780,253.810 266.862,250.200 266.436 C 248.220 266.202,245.160 265.908,243.400 265.781 C 241.640 265.655,239.812 265.474,239.338 265.378 C 238.465 265.202,236.800 267.309,236.800 268.590 C 236.800 269.240,235.527 271.744,235.100 271.933 C 234.935 272.007,234.800 272.307,234.800 272.601 C 234.800 273.243,233.523 275.745,233.100 275.933 C 232.935 276.007,232.800 276.307,232.800 276.602 C 232.800 277.100,228.988 283.557,228.432 284.000 C 228.294 284.110,227.845 284.728,227.433 285.374 C 226.152 287.384,221.548 292.298,218.375 295.043 C 216.985 296.245,213.278 298.532,211.400 299.346 C 210.520 299.727,209.487 300.210,209.105 300.419 C 208.723 300.629,207.879 300.800,207.229 300.800 C 206.579 300.800,205.949 300.958,205.830 301.152 C 205.007 302.482,195.569 301.967,191.000 300.341 C 185.008 298.210,175.398 290.455,172.851 285.695 C 172.606 285.237,172.174 284.623,171.890 284.331 C 170.445 282.840,165.701 274.296,163.822 269.800 C 162.275 266.097,161.739 265.394,160.535 265.494 C 138.839 267.299,128.013 265.700,118.737 259.319 C 106.319 250.777,103.435 231.467,112.386 216.800 C 112.587 216.470,113.315 215.120,114.003 213.800 C 115.309 211.297,120.889 202.766,122.095 201.429 C 123.651 199.706,123.360 198.968,119.100 193.823 C 118.495 193.092,118.000 192.355,118.000 192.185 C 118.000 192.015,117.550 191.286,117.000 190.564 C 116.450 189.843,116.000 189.134,116.000 188.988 C 116.000 188.843,115.625 188.197,115.167 187.554 C 112.651 184.021,109.089 175.279,107.645 169.094 C 106.734 165.193,107.174 156.137,108.426 153.000 C 112.686 142.335,119.649 136.927,133.400 133.605 C 137.997 132.494,157.878 132.657,160.936 133.831 C 161.541 134.063,162.063 133.164,163.625 129.200 C 164.855 126.078,170.590 115.703,171.584 114.800 C 171.705 114.690,172.542 113.610,173.443 112.400 C 177.694 106.691,182.296 102.761,188.000 99.967 C 191.494 98.256,191.829 98.138,194.600 97.640 C 199.194 96.814,203.792 96.891,205.860 97.829 M197.600 111.695 C 193.681 112.436,188.661 116.072,185.308 120.600 C 184.493 121.700,183.722 122.690,183.595 122.800 C 182.365 123.865,176.908 134.299,176.712 135.961 C 176.618 136.756,176.862 136.993,178.200 137.411 C 185.059 139.549,190.665 141.377,191.000 141.585 C 191.220 141.721,192.120 142.071,193.000 142.363 C 193.880 142.654,195.140 143.120,195.800 143.399 C 199.688 145.042,201.111 145.096,203.800 143.706 C 206.097 142.518,206.393 142.400,207.095 142.387 C 207.483 142.380,208.149 142.110,208.576 141.787 C 209.004 141.464,209.681 141.200,210.082 141.200 C 210.483 141.200,211.123 141.044,211.505 140.854 C 212.634 140.291,214.918 139.523,216.105 139.308 C 216.713 139.198,217.308 138.949,217.429 138.754 C 217.549 138.559,218.104 138.400,218.663 138.400 C 219.222 138.400,220.246 138.149,220.940 137.843 C 221.633 137.536,222.512 137.183,222.893 137.058 C 223.615 136.821,223.486 134.364,222.737 134.067 C 222.551 133.993,222.400 133.610,222.400 133.216 C 222.400 132.821,222.130 132.274,221.800 132.000 C 221.470 131.726,221.200 131.179,221.200 130.784 C 221.200 130.390,221.065 130.007,220.900 129.933 C 220.735 129.860,220.248 129.080,219.817 128.200 C 219.386 127.320,218.666 126.064,218.217 125.408 C 217.768 124.753,217.220 123.920,217.000 123.556 C 215.106 120.431,209.902 114.800,208.907 114.800 C 208.628 114.800,208.400 114.651,208.400 114.468 C 208.400 112.939,201.032 111.047,197.600 111.695 M139.600 147.211 C 135.532 147.899,134.523 148.114,132.921 148.633 C 121.010 152.490,118.394 161.804,125.292 175.800 C 127.558 180.399,128.295 181.649,130.702 184.973 C 133.556 188.913,133.320 188.865,136.241 186.102 C 139.667 182.858,143.750 179.248,144.859 178.483 C 145.377 178.125,146.051 177.588,146.357 177.288 C 146.663 176.988,148.135 175.769,149.628 174.577 C 152.614 172.195,152.627 172.171,153.202 168.183 C 153.912 163.255,154.326 160.805,154.807 158.680 C 155.066 157.536,155.451 155.790,155.663 154.800 C 155.874 153.810,156.337 151.959,156.691 150.687 C 157.141 149.071,157.208 148.248,156.914 147.954 C 155.926 146.966,144.064 146.456,139.600 147.211 M246.200 147.191 C 245.760 147.385,244.916 147.556,244.324 147.572 C 242.869 147.610,242.613 148.181,243.174 150.143 C 244.493 154.751,244.786 155.912,244.955 157.200 C 245.057 157.970,245.433 159.950,245.792 161.600 C 246.151 163.250,246.593 165.950,246.774 167.600 C 247.208 171.551,247.755 172.885,249.311 173.790 C 250.020 174.203,250.690 174.654,250.800 174.793 C 250.910 174.932,252.530 176.286,254.400 177.801 C 256.270 179.316,258.070 180.836,258.400 181.179 C 258.730 181.521,260.680 183.320,262.734 185.175 L 266.468 188.549 267.834 187.101 C 268.585 186.305,269.200 185.539,269.200 185.400 C 269.200 185.261,269.650 184.557,270.200 183.836 C 270.750 183.114,271.200 182.376,271.200 182.194 C 271.200 182.012,271.452 181.579,271.760 181.231 C 272.598 180.287,274.477 176.843,275.815 173.800 C 276.201 172.920,276.671 171.887,276.859 171.505 C 277.046 171.123,277.206 170.403,277.214 169.905 C 277.222 169.407,277.486 168.550,277.800 168.000 C 278.617 166.570,278.627 158.453,277.813 157.376 C 277.490 156.949,277.220 156.317,277.213 155.971 C 277.177 154.193,269.814 148.800,267.424 148.800 C 266.949 148.800,266.377 148.617,266.153 148.393 C 265.094 147.334,248.184 146.315,246.200 147.191 M170.810 152.700 C 170.559 153.745,170.181 155.320,169.969 156.200 C 169.757 157.080,169.470 158.499,169.332 159.353 L 169.080 160.906 171.840 159.378 C 173.358 158.538,175.271 157.434,176.092 156.925 C 176.913 156.416,177.681 156.000,177.800 156.000 C 178.278 156.000,181.200 153.965,181.200 153.632 C 181.200 153.435,180.165 152.969,178.900 152.595 C 177.635 152.221,175.921 151.664,175.092 151.357 C 172.173 150.279,171.326 150.544,170.810 152.700 M225.413 151.179 C 225.270 151.410,224.758 151.601,224.276 151.602 C 223.794 151.604,222.884 151.874,222.254 152.202 C 221.624 152.531,220.690 152.800,220.178 152.800 C 219.666 152.800,219.163 152.936,219.061 153.102 C 218.782 153.552,220.239 155.200,220.915 155.200 C 221.238 155.200,221.726 155.470,222.000 155.800 C 222.274 156.130,222.665 156.400,222.868 156.400 C 223.072 156.400,224.223 157.030,225.427 157.800 C 226.631 158.570,227.733 159.200,227.876 159.200 C 228.020 159.200,228.459 159.492,228.854 159.849 C 230.716 161.534,231.194 159.069,229.794 155.000 C 229.491 154.120,229.189 152.860,229.122 152.200 C 228.994 150.939,226.061 150.131,225.413 151.179 M198.400 161.379 C 197.850 161.685,195.060 163.103,192.200 164.530 C 187.499 166.875,183.969 168.790,180.600 170.823 C 179.940 171.221,178.680 171.937,177.800 172.414 C 176.920 172.891,175.345 173.893,174.299 174.641 C 173.254 175.388,172.295 176.000,172.169 176.000 C 172.043 176.000,170.633 176.936,169.037 178.079 L 166.133 180.159 165.615 187.179 C 165.119 193.900,165.225 206.981,165.846 215.529 L 166.087 218.858 167.744 220.022 C 168.655 220.662,169.590 221.324,169.822 221.493 C 170.054 221.662,170.594 222.017,171.022 222.283 C 171.450 222.548,173.420 223.791,175.400 225.044 C 177.380 226.297,179.630 227.677,180.400 228.110 C 181.170 228.544,183.240 229.716,185.000 230.716 C 190.397 233.781,199.112 238.000,200.045 238.000 C 200.986 238.000,213.015 232.222,213.412 231.580 C 213.542 231.371,213.997 231.200,214.424 231.200 C 214.851 231.200,215.200 231.020,215.200 230.800 C 215.200 230.580,215.457 230.400,215.771 230.400 C 216.086 230.400,216.584 230.175,216.879 229.900 C 217.355 229.456,218.082 229.018,220.985 227.429 C 221.416 227.193,221.997 226.792,222.276 226.537 C 222.554 226.283,223.326 225.834,223.991 225.540 C 224.656 225.246,225.200 224.869,225.200 224.702 C 225.200 224.536,225.359 224.400,225.554 224.400 C 226.007 224.400,230.956 221.129,231.133 220.713 C 231.207 220.541,231.506 220.400,231.798 220.400 C 234.007 220.400,234.932 214.237,234.922 199.600 C 234.912 185.155,234.064 178.800,232.146 178.800 C 231.910 178.800,231.231 178.350,230.638 177.800 C 230.044 177.250,229.380 176.800,229.162 176.800 C 228.944 176.800,228.280 176.350,227.687 175.800 C 227.093 175.250,226.488 174.800,226.340 174.800 C 226.009 174.800,217.544 169.691,217.020 169.174 C 216.811 168.968,216.316 168.800,215.920 168.800 C 215.524 168.800,215.200 168.623,215.200 168.408 C 215.200 168.192,214.750 167.902,214.200 167.764 C 213.650 167.626,213.200 167.353,213.200 167.157 C 213.200 166.960,212.926 166.800,212.592 166.800 C 212.258 166.800,211.313 166.386,210.492 165.879 C 209.156 165.055,207.071 164.016,202.800 162.046 C 202.030 161.691,201.340 161.265,201.267 161.100 C 201.054 160.620,199.487 160.773,198.400 161.379 M203.143 180.819 C 208.372 181.667,214.261 185.587,216.361 189.615 C 216.799 190.455,217.329 191.470,217.539 191.871 C 219.149 194.939,219.501 201.437,218.265 205.291 C 214.414 217.306,199.680 222.380,189.400 215.232 C 172.646 203.582,183.039 177.557,203.143 180.819 M149.172 193.618 C 147.101 195.400,143.200 199.309,143.200 199.602 C 143.200 199.998,149.055 205.494,150.037 206.020 C 151.106 206.592,151.250 205.628,151.115 198.833 C 150.992 192.677,150.816 192.203,149.172 193.618 M249.153 192.900 C 248.784 193.679,249.079 205.732,249.470 205.882 C 250.246 206.180,256.800 200.552,256.800 199.588 C 256.800 198.487,249.521 192.122,249.153 192.900 M196.984 196.136 C 194.734 198.386,194.667 200.728,196.790 202.851 C 198.518 204.579,201.877 204.537,203.365 202.769 C 207.272 198.125,201.252 191.868,196.984 196.136 M132.366 211.905 C 129.846 214.787,125.941 221.482,123.563 227.000 C 121.620 231.507,121.083 239.656,122.547 242.400 C 126.299 249.429,133.803 252.202,148.360 251.938 C 157.460 251.773,157.665 251.690,156.691 248.540 C 156.361 247.473,155.878 245.520,155.617 244.200 C 155.357 242.880,154.904 240.720,154.611 239.400 C 153.952 236.432,153.296 232.503,152.975 229.598 C 152.694 227.051,152.403 226.575,150.120 224.928 C 148.263 223.588,141.563 217.944,139.997 216.400 C 134.084 210.570,133.721 210.356,132.366 211.905 M264.800 212.076 C 262.225 214.380,256.276 219.794,255.764 220.300 C 255.485 220.575,255.109 220.806,254.929 220.813 C 254.748 220.821,253.712 221.630,252.626 222.612 C 251.540 223.595,250.058 224.804,249.332 225.299 C 247.732 226.391,247.170 227.726,246.764 231.400 C 246.593 232.940,246.161 235.640,245.803 237.400 C 245.445 239.160,244.997 241.500,244.808 242.600 C 244.618 243.700,244.164 245.680,243.798 247.000 C 242.732 250.843,242.736 250.860,245.000 251.491 C 247.947 252.312,255.663 252.593,259.000 252.001 C 260.540 251.728,262.610 251.417,263.600 251.309 C 264.590 251.202,265.580 250.977,265.800 250.809 C 266.020 250.642,266.875 250.383,267.700 250.234 C 268.525 250.085,269.200 249.792,269.200 249.582 C 269.200 249.372,269.650 249.200,270.200 249.200 C 270.750 249.200,271.200 249.020,271.200 248.800 C 271.200 248.580,271.478 248.400,271.817 248.400 C 276.061 248.400,280.352 235.953,277.798 231.054 C 277.469 230.424,277.200 229.567,277.200 229.149 C 277.200 228.731,277.046 228.077,276.859 227.695 C 276.537 227.039,276.298 226.504,274.584 222.600 C 274.198 221.720,273.773 220.910,273.641 220.800 C 273.426 220.622,272.749 219.457,271.429 217.000 C 271.193 216.560,270.888 216.110,270.750 216.000 C 270.613 215.890,270.163 215.246,269.750 214.569 C 267.402 210.719,266.708 210.369,264.800 212.076 M1.594 228.324 C 1.597 228.612,1.420 228.736,1.200 228.600 C 0.980 228.464,0.803 227.958,0.806 227.476 C 0.813 226.492,1.582 227.319,1.594 228.324 M169.200 239.004 C 169.200 239.669,169.806 242.330,170.724 245.700 C 171.483 248.485,172.250 248.637,177.170 246.979 C 178.836 246.417,180.445 245.875,180.745 245.774 C 181.456 245.535,180.749 244.635,179.258 243.883 C 177.163 242.825,173.379 240.672,172.352 239.953 C 170.623 238.743,169.200 238.314,169.200 239.004 M229.058 239.100 C 228.955 239.265,227.684 240.024,226.235 240.787 C 224.786 241.550,223.600 242.315,223.600 242.487 C 223.600 242.659,223.324 242.800,222.986 242.800 C 222.328 242.800,220.664 243.774,219.462 244.862 C 218.622 245.623,219.475 246.400,221.150 246.400 C 221.592 246.400,222.064 246.580,222.200 246.800 C 222.336 247.020,222.880 247.200,223.410 247.200 C 223.940 247.200,225.004 247.501,225.776 247.869 C 227.563 248.721,229.200 248.142,229.200 246.657 C 229.200 246.130,229.446 245.091,229.747 244.349 C 231.073 241.078,230.511 236.792,229.058 239.100 M198.800 254.356 C 196.278 255.655,195.446 256.000,194.834 256.000 C 194.449 256.000,194.010 256.123,193.859 256.274 C 193.554 256.579,191.797 257.245,188.200 258.420 C 186.880 258.851,185.440 259.362,185.000 259.556 C 184.560 259.750,183.390 260.128,182.400 260.396 C 179.740 261.115,177.047 262.062,176.657 262.416 C 175.918 263.085,182.578 275.386,185.420 278.600 C 186.004 279.260,186.870 280.258,187.346 280.819 C 194.749 289.536,205.898 289.465,213.000 280.657 C 213.660 279.839,214.695 278.591,215.299 277.884 C 215.904 277.178,216.623 276.105,216.897 275.500 C 217.171 274.895,217.490 274.400,217.607 274.400 C 217.723 274.400,218.172 273.725,218.605 272.900 C 219.038 272.075,219.496 271.310,219.624 271.200 C 220.893 270.102,223.750 262.545,223.062 262.104 C 222.237 261.573,219.822 260.812,218.946 260.806 C 218.476 260.803,217.576 260.531,216.946 260.202 C 216.316 259.874,215.496 259.604,215.124 259.602 C 214.752 259.601,214.336 259.420,214.200 259.200 C 214.064 258.980,213.541 258.800,213.038 258.800 C 212.212 258.800,210.600 258.195,208.705 257.174 C 208.323 256.968,207.736 256.800,207.400 256.800 C 207.064 256.800,206.477 256.632,206.095 256.426 C 204.329 255.474,202.615 254.800,201.962 254.800 C 201.569 254.800,201.136 254.620,201.000 254.400 C 200.712 253.934,199.660 253.913,198.800 254.356 " stroke="none" fill="#4b5764" fill-rule="evenodd"></path><path id="path2" d="" stroke="none" fill="#ff0000" fill-rule="evenodd"></path><path id="path3" d="M180.300 0.282 C 180.795 0.378,181.605 0.378,182.100 0.282 C 182.595 0.187,182.190 0.109,181.200 0.109 C 180.210 0.109,179.805 0.187,180.300 0.282 M217.900 0.282 C 218.395 0.378,219.205 0.378,219.700 0.282 C 220.195 0.187,219.790 0.109,218.800 0.109 C 217.810 0.109,217.405 0.187,217.900 0.282 M154.800 4.100 C 154.800 4.506,155.672 4.468,156.361 4.032 C 156.763 3.778,156.621 3.694,155.862 3.738 C 155.278 3.772,154.800 3.935,154.800 4.100 M77.261 40.535 C 76.589 41.250,76.527 41.467,76.993 41.467 C 77.327 41.467,77.600 41.242,77.600 40.967 C 77.600 40.692,77.825 40.386,78.100 40.288 C 78.375 40.190,78.496 39.996,78.368 39.856 C 78.241 39.717,77.743 40.022,77.261 40.535 M50.400 65.400 C 49.883 65.950,49.653 66.400,49.887 66.400 C 50.122 66.400,50.422 66.119,50.554 65.775 C 50.686 65.431,50.946 65.243,51.131 65.357 C 51.315 65.471,51.467 65.303,51.467 64.982 C 51.467 64.239,51.504 64.224,50.400 65.400 M40.400 77.400 C 39.883 77.950,39.653 78.400,39.887 78.400 C 40.122 78.400,40.422 78.119,40.554 77.775 C 40.686 77.431,40.976 77.261,41.197 77.398 C 41.419 77.535,41.600 77.367,41.600 77.024 C 41.600 76.196,41.502 76.227,40.400 77.400 M198.000 97.104 C 193.780 97.544,191.775 98.118,188.000 99.967 C 182.296 102.761,177.694 106.691,173.443 112.400 C 172.542 113.610,171.705 114.690,171.584 114.800 C 170.590 115.703,164.855 126.078,163.625 129.200 C 162.063 133.164,161.541 134.063,160.936 133.831 C 157.878 132.657,137.997 132.494,133.400 133.605 C 119.649 136.927,112.686 142.335,108.426 153.000 C 107.174 156.137,106.734 165.193,107.645 169.094 C 109.089 175.279,112.651 184.021,115.167 187.554 C 115.625 188.197,116.000 188.843,116.000 188.988 C 116.000 189.134,116.450 189.843,117.000 190.564 C 117.550 191.286,118.000 192.015,118.000 192.185 C 118.000 192.355,118.495 193.092,119.100 193.823 C 123.360 198.968,123.651 199.706,122.095 201.429 C 120.889 202.766,115.309 211.297,114.003 213.800 C 113.315 215.120,112.587 216.470,112.386 216.800 C 103.435 231.467,106.319 250.777,118.737 259.319 C 128.013 265.700,138.839 267.299,160.535 265.494 C 161.739 265.394,162.275 266.097,163.822 269.800 C 165.701 274.296,170.445 282.840,171.890 284.331 C 172.174 284.623,172.606 285.237,172.851 285.695 C 175.398 290.455,185.008 298.210,191.000 300.341 C 195.569 301.967,205.007 302.482,205.830 301.152 C 205.949 300.958,206.579 300.800,207.229 300.800 C 207.879 300.800,208.723 300.629,209.105 300.419 C 209.487 300.210,210.520 299.727,211.400 299.346 C 213.278 298.532,216.985 296.245,218.375 295.043 C 221.548 292.298,226.152 287.384,227.433 285.374 C 227.845 284.728,228.294 284.110,228.432 284.000 C 228.988 283.557,232.800 277.100,232.800 276.602 C 232.800 276.307,232.935 276.007,233.100 275.933 C 233.523 275.745,234.800 273.243,234.800 272.601 C 234.800 272.307,234.935 272.007,235.100 271.933 C 235.527 271.744,236.800 269.240,236.800 268.590 C 236.800 267.309,238.465 265.202,239.338 265.378 C 239.812 265.474,241.640 265.655,243.400 265.781 C 245.160 265.908,248.220 266.202,250.200 266.436 C 253.810 266.862,254.795 266.780,268.200 264.938 C 269.080 264.817,269.971 264.556,270.180 264.359 C 270.389 264.162,270.902 264.000,271.320 264.000 C 272.520 264.000,278.689 261.186,280.673 259.732 C 281.374 259.220,282.060 258.800,282.199 258.800 C 283.213 258.800,290.000 250.564,290.000 249.334 C 290.000 249.040,290.180 248.800,290.400 248.800 C 290.620 248.800,290.800 248.361,290.800 247.824 C 290.800 247.287,290.956 246.751,291.147 246.632 C 291.339 246.514,291.616 245.658,291.765 244.729 C 291.914 243.800,292.217 242.821,292.439 242.553 C 293.088 241.770,292.646 231.428,291.833 228.400 C 291.449 226.970,291.040 225.215,290.924 224.500 C 290.808 223.785,290.552 223.200,290.356 223.200 C 290.160 223.200,290.000 222.912,290.000 222.560 C 290.000 221.896,289.189 219.871,288.094 217.800 C 287.745 217.140,287.336 216.330,287.187 216.000 C 286.298 214.043,285.148 212.099,282.455 208.000 C 280.792 205.470,279.325 203.310,279.195 203.200 C 276.989 201.338,276.385 199.039,277.723 197.596 C 279.198 196.005,282.800 190.931,282.800 190.444 C 282.800 190.200,282.941 190.000,283.113 190.000 C 283.285 190.000,284.044 188.830,284.800 187.400 C 285.556 185.970,286.315 184.800,286.487 184.800 C 286.659 184.800,286.800 184.590,286.800 184.334 C 286.800 183.588,288.123 180.800,288.477 180.800 C 288.655 180.800,288.800 180.468,288.800 180.061 C 288.800 179.388,289.465 177.689,290.426 175.905 C 290.632 175.523,290.800 174.769,290.800 174.229 C 290.800 173.689,290.956 173.151,291.147 173.033 C 291.338 172.915,291.620 171.873,291.773 170.719 C 291.926 169.565,292.230 168.405,292.447 168.143 C 293.348 167.058,292.432 154.247,291.307 152.200 C 291.065 151.760,290.556 150.680,290.175 149.800 C 288.302 145.472,279.934 137.200,277.428 137.200 C 277.300 137.200,276.263 136.750,275.123 136.200 C 273.983 135.650,272.670 135.200,272.205 135.200 C 271.740 135.200,271.189 135.034,270.980 134.831 C 269.979 133.858,260.621 132.612,254.600 132.650 C 249.150 132.684,239.514 133.359,238.880 133.750 C 238.575 133.939,238.105 133.366,237.542 132.121 C 237.065 131.064,236.253 129.328,235.737 128.263 C 235.222 127.198,234.800 126.088,234.800 125.796 C 234.800 125.505,234.659 125.207,234.486 125.133 C 234.314 125.060,233.596 123.863,232.891 122.474 C 230.584 117.929,226.402 112.095,222.868 108.493 C 217.714 103.239,216.758 102.497,212.400 100.374 C 210.970 99.677,209.487 98.948,209.105 98.754 C 208.723 98.559,208.121 98.400,207.766 98.400 C 207.411 98.400,206.554 98.143,205.860 97.829 C 204.670 97.289,200.188 96.876,198.000 97.104 M205.900 112.907 C 207.275 113.583,208.400 114.286,208.400 114.468 C 208.400 114.651,208.628 114.800,208.907 114.800 C 209.902 114.800,215.106 120.431,217.000 123.556 C 217.220 123.920,217.768 124.753,218.217 125.408 C 218.666 126.064,219.386 127.320,219.817 128.200 C 220.248 129.080,220.735 129.860,220.900 129.933 C 221.065 130.007,221.200 130.390,221.200 130.784 C 221.200 131.179,221.470 131.726,221.800 132.000 C 222.130 132.274,222.400 132.821,222.400 133.216 C 222.400 133.610,222.551 133.993,222.737 134.067 C 223.486 134.364,223.615 136.821,222.893 137.058 C 222.512 137.183,221.633 137.536,220.940 137.843 C 220.246 138.149,219.222 138.400,218.663 138.400 C 218.104 138.400,217.549 138.559,217.429 138.754 C 217.308 138.949,216.713 139.198,216.105 139.308 C 214.918 139.523,212.634 140.291,211.505 140.854 C 211.123 141.044,210.483 141.200,210.082 141.200 C 209.681 141.200,209.004 141.464,208.576 141.787 C 208.149 142.110,207.483 142.380,207.095 142.387 C 206.393 142.400,206.097 142.518,203.800 143.706 C 201.111 145.096,199.688 145.042,195.800 143.399 C 195.140 143.120,193.880 142.654,193.000 142.363 C 192.120 142.071,191.220 141.721,191.000 141.585 C 190.665 141.377,185.059 139.549,178.200 137.411 C 176.862 136.993,176.618 136.756,176.712 135.961 C 176.908 134.299,182.365 123.865,183.595 122.800 C 183.722 122.690,184.493 121.700,185.308 120.600 C 191.349 112.443,199.082 109.554,205.900 112.907 M153.747 147.180 C 157.328 147.642,157.486 147.830,156.691 150.687 C 156.337 151.959,155.874 153.810,155.663 154.800 C 155.451 155.790,155.066 157.536,154.807 158.680 C 154.326 160.805,153.912 163.255,153.202 168.183 C 152.627 172.171,152.614 172.195,149.628 174.577 C 148.135 175.769,146.663 176.988,146.357 177.288 C 146.051 177.588,145.377 178.125,144.859 178.483 C 143.750 179.248,139.667 182.858,136.241 186.102 C 133.320 188.865,133.556 188.913,130.702 184.973 C 128.295 181.649,127.558 180.399,125.292 175.800 C 118.394 161.804,121.010 152.490,132.921 148.633 C 134.523 148.114,135.532 147.899,139.600 147.211 C 142.153 146.780,150.496 146.761,153.747 147.180 M262.973 147.541 C 264.499 147.786,265.930 148.170,266.153 148.393 C 266.377 148.617,266.949 148.800,267.424 148.800 C 269.814 148.800,277.177 154.193,277.213 155.971 C 277.220 156.317,277.490 156.949,277.813 157.376 C 278.627 158.453,278.617 166.570,277.800 168.000 C 277.486 168.550,277.222 169.407,277.214 169.905 C 277.206 170.403,277.046 171.123,276.859 171.505 C 276.671 171.887,276.201 172.920,275.815 173.800 C 274.477 176.843,272.598 180.287,271.760 181.231 C 271.452 181.579,271.200 182.012,271.200 182.194 C 271.200 182.376,270.750 183.114,270.200 183.836 C 269.650 184.557,269.200 185.261,269.200 185.400 C 269.200 185.539,268.585 186.305,267.834 187.101 L 266.468 188.549 262.734 185.175 C 260.680 183.320,258.730 181.521,258.400 181.179 C 258.070 180.836,256.270 179.316,254.400 177.801 C 252.530 176.286,250.910 174.932,250.800 174.793 C 250.690 174.654,250.020 174.203,249.311 173.790 C 247.755 172.885,247.208 171.551,246.774 167.600 C 246.593 165.950,246.151 163.250,245.792 161.600 C 245.433 159.950,245.057 157.970,244.955 157.200 C 244.786 155.912,244.493 154.751,243.174 150.143 C 242.613 148.181,242.869 147.610,244.324 147.572 C 244.916 147.556,245.760 147.385,246.200 147.191 C 247.262 146.722,259.460 146.977,262.973 147.541 M175.092 151.357 C 175.921 151.664,177.635 152.221,178.900 152.595 C 180.165 152.969,181.200 153.435,181.200 153.632 C 181.200 153.965,178.278 156.000,177.800 156.000 C 177.681 156.000,176.913 156.416,176.092 156.925 C 175.271 157.434,173.358 158.538,171.840 159.378 L 169.080 160.906 169.332 159.353 C 169.470 158.499,169.757 157.080,169.969 156.200 C 170.181 155.320,170.559 153.745,170.810 152.700 C 171.326 150.544,172.173 150.279,175.092 151.357 M229.122 152.200 C 229.189 152.860,229.491 154.120,229.794 155.000 C 231.194 159.069,230.716 161.534,228.854 159.849 C 228.459 159.492,228.020 159.200,227.876 159.200 C 227.733 159.200,226.631 158.570,225.427 157.800 C 224.223 157.030,223.072 156.400,222.868 156.400 C 222.665 156.400,222.274 156.130,222.000 155.800 C 221.726 155.470,221.238 155.200,220.915 155.200 C 220.239 155.200,218.782 153.552,219.061 153.102 C 219.163 152.936,219.666 152.800,220.178 152.800 C 220.690 152.800,221.624 152.531,222.254 152.202 C 222.884 151.874,223.794 151.604,224.276 151.602 C 224.758 151.601,225.270 151.410,225.413 151.179 C 226.061 150.131,228.994 150.939,229.122 152.200 M201.267 161.100 C 201.340 161.265,202.030 161.691,202.800 162.046 C 207.071 164.016,209.156 165.055,210.492 165.879 C 211.313 166.386,212.258 166.800,212.592 166.800 C 212.926 166.800,213.200 166.960,213.200 167.157 C 213.200 167.353,213.650 167.626,214.200 167.764 C 214.750 167.902,215.200 168.192,215.200 168.408 C 215.200 168.623,215.524 168.800,215.920 168.800 C 216.316 168.800,216.811 168.968,217.020 169.174 C 217.544 169.691,226.009 174.800,226.340 174.800 C 226.488 174.800,227.093 175.250,227.687 175.800 C 228.280 176.350,228.944 176.800,229.162 176.800 C 229.380 176.800,230.044 177.250,230.638 177.800 C 231.231 178.350,231.910 178.800,232.146 178.800 C 234.064 178.800,234.912 185.155,234.922 199.600 C 234.932 214.237,234.007 220.400,231.798 220.400 C 231.506 220.400,231.207 220.541,231.133 220.713 C 230.956 221.129,226.007 224.400,225.554 224.400 C 225.359 224.400,225.200 224.536,225.200 224.702 C 225.200 224.869,224.656 225.246,223.991 225.540 C 223.326 225.834,222.554 226.283,222.276 226.537 C 221.997 226.792,221.416 227.193,220.985 227.429 C 218.082 229.018,217.355 229.456,216.879 229.900 C 216.584 230.175,216.086 230.400,215.771 230.400 C 215.457 230.400,215.200 230.580,215.200 230.800 C 215.200 231.020,214.851 231.200,214.424 231.200 C 213.997 231.200,213.542 231.371,213.412 231.580 C 213.015 232.222,200.986 238.000,200.045 238.000 C 199.112 238.000,190.397 233.781,185.000 230.716 C 183.240 229.716,181.170 228.544,180.400 228.110 C 179.630 227.677,177.380 226.297,175.400 225.044 C 173.420 223.791,171.450 222.548,171.022 222.283 C 170.594 222.017,170.054 221.662,169.822 221.493 C 169.590 221.324,168.655 220.662,167.744 220.022 L 166.087 218.858 165.846 215.529 C 165.225 206.981,165.119 193.900,165.615 187.179 L 166.133 180.159 169.037 178.079 C 170.633 176.936,172.043 176.000,172.169 176.000 C 172.295 176.000,173.254 175.388,174.299 174.641 C 175.345 173.893,176.920 172.891,177.800 172.414 C 178.680 171.937,179.940 171.221,180.600 170.823 C 183.969 168.790,187.499 166.875,192.200 164.530 C 195.060 163.103,197.850 161.685,198.400 161.379 C 199.487 160.773,201.054 160.620,201.267 161.100 M397.892 165.442 C 397.731 165.602,397.600 166.009,397.600 166.347 C 397.600 166.797,397.718 166.842,398.045 166.515 C 398.290 166.270,398.421 165.863,398.337 165.610 C 398.252 165.357,398.052 165.281,397.892 165.442 M0.093 180.800 C 0.093 181.570,0.175 181.885,0.276 181.500 C 0.376 181.115,0.376 180.485,0.276 180.100 C 0.175 179.715,0.093 180.030,0.093 180.800 M399.709 181.200 C 399.709 182.190,399.787 182.595,399.882 182.100 C 399.978 181.605,399.978 180.795,399.882 180.300 C 399.787 179.805,399.709 180.210,399.709 181.200 M196.200 180.957 C 175.491 185.091,176.229 214.374,197.138 218.208 C 211.514 220.844,224.169 204.505,217.539 191.871 C 217.329 191.470,216.799 190.455,216.361 189.615 C 213.062 183.286,204.009 179.399,196.200 180.957 M151.115 198.833 C 151.291 207.669,151.391 207.588,146.247 202.766 C 142.593 199.342,142.639 199.837,145.700 196.874 C 151.187 191.563,150.968 191.483,151.115 198.833 M251.364 193.971 C 253.108 195.357,256.800 199.172,256.800 199.588 C 256.800 199.948,252.137 204.550,250.881 205.428 C 249.125 206.658,248.973 206.156,249.041 199.347 C 249.120 191.563,248.919 192.028,251.364 193.971 M202.586 195.591 C 204.035 196.487,205.055 198.928,204.652 200.534 C 203.780 204.009,199.275 205.337,196.790 202.851 C 192.796 198.858,197.777 192.619,202.586 195.591 M136.936 213.500 C 138.508 214.985,139.886 216.290,139.997 216.400 C 141.563 217.944,148.263 223.588,150.120 224.928 C 152.403 226.575,152.694 227.051,152.975 229.598 C 153.296 232.503,153.952 236.432,154.611 239.400 C 154.904 240.720,155.357 242.880,155.617 244.200 C 155.878 245.520,156.361 247.473,156.691 248.540 C 157.665 251.690,157.460 251.773,148.360 251.938 C 133.803 252.202,126.299 249.429,122.547 242.400 C 121.534 240.502,121.529 232.775,122.539 229.800 C 124.897 222.855,131.982 210.800,133.705 210.800 C 133.910 210.800,135.364 212.015,136.936 213.500 M267.926 212.069 C 268.517 212.768,269.338 213.893,269.750 214.569 C 270.163 215.246,270.613 215.890,270.750 216.000 C 270.888 216.110,271.193 216.560,271.429 217.000 C 272.749 219.457,273.426 220.622,273.641 220.800 C 273.773 220.910,274.198 221.720,274.584 222.600 C 276.298 226.504,276.537 227.039,276.859 227.695 C 277.046 228.077,277.200 228.731,277.200 229.149 C 277.200 229.567,277.469 230.424,277.798 231.054 C 280.352 235.953,276.061 248.400,271.817 248.400 C 271.478 248.400,271.200 248.580,271.200 248.800 C 271.200 249.020,270.750 249.200,270.200 249.200 C 269.650 249.200,269.200 249.372,269.200 249.582 C 269.200 249.792,268.525 250.085,267.700 250.234 C 266.875 250.383,266.020 250.642,265.800 250.809 C 265.580 250.977,264.590 251.202,263.600 251.309 C 262.610 251.417,260.540 251.728,259.000 252.001 C 255.663 252.593,247.947 252.312,245.000 251.491 C 242.736 250.860,242.732 250.843,243.798 247.000 C 244.164 245.680,244.618 243.700,244.808 242.600 C 244.997 241.500,245.445 239.160,245.803 237.400 C 246.161 235.640,246.593 232.940,246.764 231.400 C 247.170 227.726,247.732 226.391,249.332 225.299 C 250.058 224.804,251.540 223.595,252.626 222.612 C 253.712 221.630,254.748 220.821,254.929 220.813 C 255.109 220.806,255.485 220.575,255.764 220.300 C 256.276 219.794,262.225 214.380,264.800 212.076 C 266.541 210.518,266.613 210.518,267.926 212.069 M0.109 218.800 C 0.109 219.790,0.187 220.195,0.282 219.700 C 0.378 219.205,0.378 218.395,0.282 217.900 C 0.187 217.405,0.109 217.810,0.109 218.800 M399.709 218.800 C 399.709 219.790,399.787 220.195,399.882 219.700 C 399.978 219.205,399.978 218.395,399.882 217.900 C 399.787 217.405,399.709 217.810,399.709 218.800 M0.806 227.476 C 0.803 227.958,0.980 228.464,1.200 228.600 C 1.709 228.915,1.709 227.988,1.200 227.200 C 0.885 226.712,0.811 226.764,0.806 227.476 M398.400 227.576 C 398.400 228.003,398.611 228.483,398.868 228.642 C 399.175 228.832,399.255 228.719,399.099 228.314 C 398.969 227.975,399.064 227.496,399.311 227.249 C 399.643 226.917,399.583 226.800,399.080 226.800 C 398.674 226.800,398.400 227.112,398.400 227.576 M397.969 233.300 C 397.716 234.128,397.746 234.800,398.035 234.800 C 398.236 234.800,398.400 234.440,398.400 234.000 C 398.400 233.357,398.101 232.871,397.969 233.300 M172.352 239.953 C 173.379 240.672,177.163 242.825,179.258 243.883 C 180.749 244.635,181.456 245.535,180.745 245.774 C 170.772 249.136,171.516 249.423,169.649 241.494 C 168.859 238.140,169.357 237.857,172.352 239.953 M230.528 240.900 C 230.399 242.055,230.048 243.607,229.747 244.349 C 229.446 245.091,229.200 246.130,229.200 246.657 C 229.200 248.142,227.563 248.721,225.776 247.869 C 225.004 247.501,223.940 247.200,223.410 247.200 C 222.880 247.200,222.336 247.020,222.200 246.800 C 222.064 246.580,221.592 246.400,221.150 246.400 C 219.475 246.400,218.622 245.623,219.462 244.862 C 220.664 243.774,222.328 242.800,222.986 242.800 C 223.324 242.800,223.600 242.659,223.600 242.487 C 223.600 242.315,224.786 241.550,226.235 240.787 C 227.684 240.024,228.955 239.265,229.058 239.100 C 229.863 237.821,230.750 238.907,230.528 240.900 M395.867 243.867 C 395.497 244.237,395.532 245.200,395.915 245.200 C 396.088 245.200,396.257 244.840,396.290 244.400 C 396.355 243.540,396.283 243.450,395.867 243.867 M201.000 254.400 C 201.136 254.620,201.569 254.800,201.962 254.800 C 202.615 254.800,204.329 255.474,206.095 256.426 C 206.477 256.632,207.064 256.800,207.400 256.800 C 207.736 256.800,208.323 256.968,208.705 257.174 C 210.600 258.195,212.212 258.800,213.038 258.800 C 213.541 258.800,214.064 258.980,214.200 259.200 C 214.336 259.420,214.752 259.601,215.124 259.602 C 215.496 259.604,216.316 259.874,216.946 260.202 C 217.576 260.531,218.476 260.803,218.946 260.806 C 219.822 260.812,222.237 261.573,223.062 262.104 C 223.750 262.545,220.893 270.102,219.624 271.200 C 219.496 271.310,219.038 272.075,218.605 272.900 C 218.172 273.725,217.723 274.400,217.607 274.400 C 217.490 274.400,217.171 274.895,216.897 275.500 C 216.623 276.105,215.904 277.178,215.299 277.884 C 214.695 278.591,213.660 279.839,213.000 280.657 C 205.898 289.465,194.749 289.536,187.346 280.819 C 186.870 280.258,186.004 279.260,185.420 278.600 C 182.578 275.386,175.918 263.085,176.657 262.416 C 177.047 262.062,179.740 261.115,182.400 260.396 C 183.390 260.128,184.560 259.750,185.000 259.556 C 185.440 259.362,186.880 258.851,188.200 258.420 C 191.797 257.245,193.554 256.579,193.859 256.274 C 194.010 256.123,194.449 256.000,194.834 256.000 C 195.446 256.000,196.278 255.655,198.800 254.356 C 199.660 253.913,200.712 253.934,201.000 254.400 M40.681 323.067 C 40.793 323.360,41.046 323.600,41.243 323.600 C 41.439 323.600,41.600 323.360,41.600 323.067 C 41.600 322.773,41.347 322.533,41.038 322.533 C 40.729 322.533,40.568 322.773,40.681 323.067 M350.400 332.967 C 350.400 333.278,350.175 333.614,349.900 333.712 C 349.609 333.816,349.548 334.039,349.755 334.245 C 349.961 334.452,350.185 334.388,350.290 334.093 C 350.390 333.814,350.738 333.319,351.064 332.993 C 351.588 332.469,351.584 332.400,351.029 332.400 C 350.683 332.400,350.400 332.655,350.400 332.967 M76.681 359.067 C 76.793 359.360,77.046 359.600,77.243 359.600 C 77.439 359.600,77.600 359.360,77.600 359.067 C 77.600 358.773,77.347 358.533,77.038 358.533 C 76.729 358.533,76.568 358.773,76.681 359.067 M243.815 395.976 C 243.687 396.182,243.947 396.324,244.391 396.291 C 244.836 396.257,245.200 396.088,245.200 395.915 C 245.200 395.473,244.096 395.521,243.815 395.976 M165.400 398.000 C 165.264 398.220,165.423 398.400,165.753 398.400 C 166.083 398.400,166.464 398.220,166.600 398.000 C 166.736 397.780,166.577 397.600,166.247 397.600 C 165.917 397.600,165.536 397.780,165.400 398.000 M233.346 398.087 C 233.240 398.259,233.613 398.400,234.176 398.400 C 234.739 398.400,235.200 398.231,235.200 398.025 C 235.200 397.581,233.626 397.634,233.346 398.087 M180.100 399.876 C 180.485 399.976,181.115 399.976,181.500 399.876 C 181.885 399.775,181.570 399.693,180.800 399.693 C 180.030 399.693,179.715 399.775,180.100 399.876 M218.500 399.876 C 218.885 399.976,219.515 399.976,219.900 399.876 C 220.285 399.775,219.970 399.693,219.200 399.693 C 218.430 399.693,218.115 399.775,218.500 399.876 " stroke="none" fill="#85c8c9" fill-rule="evenodd"></path><path id="path4" d="" stroke="none" fill="#ffff00" fill-rule="evenodd"></path></g></svg>